<?xml version="1.0" encoding="UTF-8"?>
<svg width="550px" height="469px" viewBox="0 0 550 469" version="1.1" xmlns="http://www.w3.org/2000/svg" xmlns:xlink="http://www.w3.org/1999/xlink">
    <title>Artboard Copy 23</title>
    <defs>
        <filter x="-28.5%" y="-21.3%" width="157.0%" height="142.7%" filterUnits="objectBoundingBox" id="filter-1">
            <feOffset dx="0" dy="10" in="SourceAlpha" result="shadowOffsetOuter1"></feOffset>
            <feGaussianBlur stdDeviation="15" in="shadowOffsetOuter1" result="shadowBlurOuter1"></feGaussianBlur>
            <feColorMatrix values="0 0 0 0 0   0 0 0 0 0   0 0 0 0 0  0 0 0 0.1 0" type="matrix" in="shadowBlurOuter1" result="shadowMatrixOuter1"></feColorMatrix>
            <feMerge>
                <feMergeNode in="shadowMatrixOuter1"></feMergeNode>
                <feMergeNode in="SourceGraphic"></feMergeNode>
            </feMerge>
        </filter>
        <linearGradient x1="50%" y1="0%" x2="50%" y2="100%" id="linearGradient-2">
            <stop stop-color="#AB7078" offset="0%"></stop>
            <stop stop-color="#8E5B62" offset="100%"></stop>
        </linearGradient>
    </defs>
    <g id="Artboard-Copy-23" stroke="none" stroke-width="1" fill="none" fill-rule="evenodd">
        <path d="M667,352 C667,222.214441 562.010436,117 432.50227,117 C302.989564,117 198,222.214441 198,352 L667,352 Z" id="Fill-13" fill="#8FD6B0" transform="translate(432.500000, 234.500000) rotate(-270.000000) translate(-432.500000, -234.500000) "></path>
        <g id="Direct-Deposit-Enrollment" filter="url(#filter-1)" transform="translate(140.000000, 57.000000)">
            <rect id="Rectangle" fill="#FFFFFF" x="0" y="0" width="270" height="361" rx="3"></rect>
            <g id="Group-3" transform="translate(23.000000, 14.000000)">
                <g id="Group" transform="translate(0.000000, 61.000000)">
                    <rect id="Rectangle" fill="#EDF2F5" x="1.42108547e-13" y="14.2105263" width="107.171053" height="20" rx="3"></rect>
                    <text id="Name" font-family="HelveticaNeue-Medium, Helvetica Neue" font-size="8" font-weight="400" fill="#162731">
                        <tspan x="0" y="8">Name</tspan>
                    </text>
                    <path d="M1.211,43 L1.211,40.711 L3.507,40.711 L3.507,40.151 L1.211,40.151 L1.211,38.562 L3.829,38.562 L3.829,38.002 L0.546,38.002 L0.546,43 L1.211,43 Z M5.096,38.73 L5.096,38.002 L4.501,38.002 L4.501,38.73 L5.096,38.73 Z M5.096,43 L5.096,39.381 L4.501,39.381 L4.501,43 L5.096,43 Z M6.594,43 L6.594,41.39 C6.594,41.1566667 6.61733333,40.9501667 6.664,40.7705 C6.71066667,40.5908333 6.78533333,40.438 6.888,40.312 C6.99066667,40.186 7.126,40.0903333 7.294,40.025 C7.462,39.9596667 7.665,39.927 7.903,39.927 L7.903,39.297 C7.581,39.2876667 7.315,39.353 7.105,39.493 C6.895,39.633 6.71766667,39.85 6.573,40.144 L6.559,40.144 L6.559,39.381 L5.999,39.381 L5.999,43 L6.594,43 Z M9.653,43.077 C9.835,43.077 10.0181667,43.0595 10.2025,43.0245 C10.3868333,42.9895 10.5525,42.9276667 10.6995,42.839 C10.8465,42.7503333 10.9655,42.6336667 11.0565,42.489 C11.1475,42.3443333 11.193,42.1623333 11.193,41.943 C11.193,41.7703333 11.1591667,41.6256667 11.0915,41.509 C11.0238333,41.3923333 10.9351667,41.2955 10.8255,41.2185 C10.7158333,41.1415 10.5898333,41.0796667 10.4475,41.033 C10.3051667,40.9863333 10.1593333,40.9466667 10.01,40.914 C9.87,40.8813333 9.73,40.8498333 9.59,40.8195 C9.45,40.7891667 9.324,40.7518333 9.212,40.7075 C9.1,40.6631667 9.00783333,40.6071667 8.9355,40.5395 C8.86316667,40.4718333 8.827,40.3866667 8.827,40.284 C8.827,40.1906667 8.85033333,40.1148333 8.897,40.0565 C8.94366667,39.9981667 9.00433333,39.9515 9.079,39.9165 C9.15366667,39.8815 9.2365,39.857 9.3275,39.843 C9.4185,39.829 9.50833333,39.822 9.597,39.822 C9.695,39.822 9.79183333,39.8325 9.8875,39.8535 C9.98316667,39.8745 10.0706667,39.9083333 10.15,39.955 C10.2293333,40.0016667 10.2946667,40.0635 10.346,40.1405 C10.3973333,40.2175 10.4276667,40.3143333 10.437,40.431 L11.032,40.431 C11.018,40.2116667 10.9713333,40.0285 10.892,39.8815 C10.8126667,39.7345 10.7065,39.6178333 10.5735,39.5315 C10.4405,39.4451667 10.2876667,39.3845 10.115,39.3495 C9.94233333,39.3145 9.75333333,39.297 9.548,39.297 C9.38933333,39.297 9.2295,39.3168333 9.0685,39.3565 C8.9075,39.3961667 8.76283333,39.4568333 8.6345,39.5385 C8.50616667,39.6201667 8.40116667,39.7263333 8.3195,39.857 C8.23783333,39.9876667 8.197,40.144 8.197,40.326 C8.197,40.5593333 8.25533333,40.7413333 8.372,40.872 C8.48866667,41.0026667 8.6345,41.1041667 8.8095,41.1765 C8.9845,41.2488333 9.17466667,41.3048333 9.38,41.3445 C9.58533333,41.3841667 9.7755,41.4285 9.9505,41.4775 C10.1255,41.5265 10.2713333,41.5906667 10.388,41.67 C10.5046667,41.7493333 10.563,41.866 10.563,42.02 C10.563,42.132 10.535,42.2241667 10.479,42.2965 C10.423,42.3688333 10.3518333,42.4236667 10.2655,42.461 C10.1791667,42.4983333 10.0846667,42.524 9.982,42.538 C9.87933333,42.552 9.78133333,42.559 9.688,42.559 C9.56666667,42.559 9.44883333,42.5473333 9.3345,42.524 C9.22016667,42.5006667 9.1175,42.4621667 9.0265,42.4085 C8.9355,42.3548333 8.862,42.2825 8.806,42.1915 C8.75,42.1005 8.71966667,41.9896667 8.715,41.859 L8.12,41.859 C8.12933333,42.083 8.176,42.2731667 8.26,42.4295 C8.344,42.5858333 8.456,42.7118333 8.596,42.8075 C8.736,42.9031667 8.897,42.972 9.079,43.014 C9.261,43.056 9.45233333,43.077 9.653,43.077 Z M13.398,43 L13.398,42.475 L13.125,42.475 C13.0316667,42.475 12.9558333,42.4715 12.8975,42.4645 C12.8391667,42.4575 12.7936667,42.4423333 12.761,42.419 C12.7283333,42.3956667 12.7061667,42.363 12.6945,42.321 C12.6828333,42.279 12.677,42.223 12.677,42.153 L12.677,39.906 L13.398,39.906 L13.398,39.381 L12.677,39.381 L12.677,38.296 L12.082,38.296 L12.082,39.381 L11.466,39.381 L11.466,39.906 L12.082,39.906 L12.082,42.209 C12.082,42.377 12.0983333,42.5123333 12.131,42.615 C12.1636667,42.7176667 12.2138333,42.797 12.2815,42.853 C12.3491667,42.909 12.4378333,42.9475 12.5475,42.9685 C12.6571667,42.9895 12.789,43 12.943,43 L13.398,43 Z M16.723,43 L16.723,38.989 L16.737,38.989 L19.348,43 L20.076,43 L20.076,38.002 L19.446,38.002 L19.446,42.055 L19.432,42.055 L16.8,38.002 L16.093,38.002 L16.093,43 L16.723,43 Z M23.835,43.077 C24.017,43.077 24.1593333,43.0466667 24.262,42.986 L24.262,42.986 L24.262,42.524 C24.192,42.5473333 24.1313333,42.559 24.08,42.559 C23.9866667,42.559 23.9318333,42.5263333 23.9155,42.461 C23.8991667,42.3956667 23.891,42.293 23.891,42.153 L23.891,42.153 L23.891,40.291 C23.891,40.081 23.8513333,39.9106667 23.772,39.78 C23.6926667,39.6493333 23.5876667,39.5478333 23.457,39.4755 C23.3263333,39.4031667 23.1805,39.3553333 23.0195,39.332 C22.8585,39.3086667 22.6963333,39.297 22.533,39.297 C22.3276667,39.297 22.1351667,39.318 21.9555,39.36 C21.7758333,39.402 21.616,39.4708333 21.476,39.5665 C21.336,39.6621667 21.224,39.787 21.14,39.941 C21.056,40.095 21.0093333,40.284 21,40.508 L21,40.508 L21.595,40.508 C21.609,40.242 21.7,40.0611667 21.868,39.9655 C22.036,39.8698333 22.246,39.822 22.498,39.822 C22.5913333,39.822 22.6858333,39.829 22.7815,39.843 C22.8771667,39.857 22.9635,39.885 23.0405,39.927 C23.1175,39.969 23.1805,40.0296667 23.2295,40.109 C23.2785,40.1883333 23.303,40.2933333 23.303,40.424 C23.303,40.536 23.2703333,40.6211667 23.205,40.6795 C23.1396667,40.7378333 23.051,40.7821667 22.939,40.8125 C22.827,40.8428333 22.6975,40.8661667 22.5505,40.8825 C22.4035,40.8988333 22.2483333,40.9233333 22.085,40.956 C21.931,40.984 21.7805,41.019 21.6335,41.061 C21.4865,41.103 21.3558333,41.1648333 21.2415,41.2465 C21.1271667,41.3281667 21.035,41.4343333 20.965,41.565 C20.895,41.6956667 20.86,41.8636667 20.86,42.069 C20.86,42.251 20.8915,42.4061667 20.9545,42.5345 C21.0175,42.6628333 21.1026667,42.7666667 21.21,42.846 C21.3173333,42.9253333 21.4445,42.9836667 21.5915,43.021 C21.7385,43.0583333 21.8936667,43.077 22.057,43.077 C22.309,43.077 22.5435,43.0338333 22.7605,42.9475 C22.9775,42.8611667 23.1676667,42.72 23.331,42.524 C23.331,42.72 23.3765,42.8611667 23.4675,42.9475 C23.5585,43.0338333 23.681,43.077 23.835,43.077 Z M22.19,42.559 C22.0966667,42.559 22.008,42.5496667 21.924,42.531 C21.84,42.5123333 21.7665,42.482 21.7035,42.44 C21.6405,42.398 21.5891667,42.3431667 21.5495,42.2755 C21.5098333,42.2078333 21.49,42.125 21.49,42.027 C21.49,41.8776667 21.5238333,41.7598333 21.5915,41.6735 C21.6591667,41.5871667 21.7466667,41.5206667 21.854,41.474 C21.9613333,41.4273333 22.0826667,41.3935 22.218,41.3725 C22.3533333,41.3515 22.4875,41.3328333 22.6205,41.3165 C22.7535,41.3001667 22.8806667,41.2791667 23.002,41.2535 C23.1233333,41.2278333 23.2213333,41.187 23.296,41.131 L23.296,41.131 L23.296,41.74 C23.296,41.824 23.275,41.9138333 23.233,42.0095 C23.191,42.1051667 23.1256667,42.1938333 23.037,42.2755 C22.9483333,42.3571667 22.834,42.4248333 22.694,42.4785 C22.554,42.5321667 22.386,42.559 22.19,42.559 Z M25.41,43 L25.41,40.746 C25.41,40.676 25.4275,40.5885 25.4625,40.4835 C25.4975,40.3785 25.5535,40.277 25.6305,40.179 C25.7075,40.081 25.8078333,39.997 25.9315,39.927 C26.0551667,39.857 26.2033333,39.822 26.376,39.822 C26.5113333,39.822 26.6221667,39.8418333 26.7085,39.8815 C26.7948333,39.9211667 26.8636667,39.9771667 26.915,40.0495 C26.9663333,40.1218333 27.0025,40.207 27.0235,40.305 C27.0445,40.403 27.055,40.5103333 27.055,40.627 L27.055,43 L27.65,43 L27.65,40.746 C27.65,40.466 27.734,40.242 27.902,40.074 C28.07,39.906 28.301,39.822 28.595,39.822 C28.7396667,39.822 28.8575,39.843 28.9485,39.885 C29.0395,39.927 29.1106667,39.9841667 29.162,40.0565 C29.2133333,40.1288333 29.2483333,40.214 29.267,40.312 C29.2856667,40.41 29.295,40.515 29.295,40.627 L29.295,43 L29.89,43 L29.89,40.347 C29.89,40.1603333 29.8608333,40.0005 29.8025,39.8675 C29.7441667,39.7345 29.6625,39.626 29.5575,39.542 C29.4525,39.458 29.3265,39.3961667 29.1795,39.3565 C29.0325,39.3168333 28.868,39.297 28.686,39.297 C28.448,39.297 28.2298333,39.3506667 28.0315,39.458 C27.8331667,39.5653333 27.6733333,39.717 27.552,39.913 C27.4773333,39.689 27.349,39.5303333 27.167,39.437 C26.985,39.3436667 26.782,39.297 26.558,39.297 C26.0493333,39.297 25.6596667,39.5023333 25.389,39.913 L25.375,39.913 L25.375,39.381 L24.815,39.381 L24.815,43 L25.41,43 Z M32.326,43.077 C32.7366667,43.077 33.0773333,42.9743333 33.348,42.769 C33.6186667,42.5636667 33.7936667,42.258 33.873,41.852 L33.285,41.852 C33.2336667,42.09 33.1275,42.2673333 32.9665,42.384 C32.8055,42.5006667 32.599,42.559 32.347,42.559 C32.151,42.559 31.9806667,42.5263333 31.836,42.461 C31.6913333,42.3956667 31.5723333,42.3081667 31.479,42.1985 C31.3856667,42.0888333 31.318,41.9628333 31.276,41.8205 C31.234,41.6781667 31.2153333,41.5276667 31.22,41.369 L33.929,41.369 C33.9383333,41.1496667 33.9185,40.9186667 33.8695,40.676 C33.8205,40.4333333 33.7318333,40.2093333 33.6035,40.004 C33.4751667,39.7986667 33.3048333,39.6295 33.0925,39.4965 C32.8801667,39.3635 32.613,39.297 32.291,39.297 C32.0436667,39.297 31.8161667,39.3436667 31.6085,39.437 C31.4008333,39.5303333 31.2211667,39.661 31.0695,39.829 C30.9178333,39.997 30.8,40.1953333 30.716,40.424 C30.632,40.6526667 30.59,40.9046667 30.59,41.18 C30.5993333,41.4553333 30.6401667,41.7096667 30.7125,41.943 C30.7848333,42.1763333 30.8933333,42.377 31.038,42.545 C31.1826667,42.713 31.3611667,42.8436667 31.5735,42.937 C31.7858333,43.0303333 32.0366667,43.077 32.326,43.077 Z M33.299,40.844 L31.22,40.844 C31.2293333,40.704 31.2596667,40.5721667 31.311,40.4485 C31.3623333,40.3248333 31.4323333,40.2163333 31.521,40.123 C31.6096667,40.0296667 31.7158333,39.9561667 31.8395,39.9025 C31.9631667,39.8488333 32.102,39.822 32.256,39.822 C32.4053333,39.822 32.5418333,39.8488333 32.6655,39.9025 C32.7891667,39.9561667 32.8965,40.0285 32.9875,40.1195 C33.0785,40.2105 33.1508333,40.319 33.2045,40.445 C33.2581667,40.571 33.2896667,40.704 33.299,40.844 Z" id="FirstName" fill="#7D8C94" fill-rule="nonzero"></path>
                    <path d="M120.857,43 L120.857,42.44 L118.211,42.44 L118.211,38.002 L117.546,38.002 L117.546,43 L120.857,43 Z M124.119,43.077 C124.301,43.077 124.443333,43.0466667 124.546,42.986 L124.546,42.986 L124.546,42.524 C124.476,42.5473333 124.415333,42.559 124.364,42.559 C124.270667,42.559 124.215833,42.5263333 124.1995,42.461 C124.183167,42.3956667 124.175,42.293 124.175,42.153 L124.175,42.153 L124.175,40.291 C124.175,40.081 124.135333,39.9106667 124.056,39.78 C123.976667,39.6493333 123.871667,39.5478333 123.741,39.4755 C123.610333,39.4031667 123.4645,39.3553333 123.3035,39.332 C123.1425,39.3086667 122.980333,39.297 122.817,39.297 C122.611667,39.297 122.419167,39.318 122.2395,39.36 C122.059833,39.402 121.9,39.4708333 121.76,39.5665 C121.62,39.6621667 121.508,39.787 121.424,39.941 C121.34,40.095 121.293333,40.284 121.284,40.508 L121.284,40.508 L121.879,40.508 C121.893,40.242 121.984,40.0611667 122.152,39.9655 C122.32,39.8698333 122.53,39.822 122.782,39.822 C122.875333,39.822 122.969833,39.829 123.0655,39.843 C123.161167,39.857 123.2475,39.885 123.3245,39.927 C123.4015,39.969 123.4645,40.0296667 123.5135,40.109 C123.5625,40.1883333 123.587,40.2933333 123.587,40.424 C123.587,40.536 123.554333,40.6211667 123.489,40.6795 C123.423667,40.7378333 123.335,40.7821667 123.223,40.8125 C123.111,40.8428333 122.9815,40.8661667 122.8345,40.8825 C122.6875,40.8988333 122.532333,40.9233333 122.369,40.956 C122.215,40.984 122.0645,41.019 121.9175,41.061 C121.7705,41.103 121.639833,41.1648333 121.5255,41.2465 C121.411167,41.3281667 121.319,41.4343333 121.249,41.565 C121.179,41.6956667 121.144,41.8636667 121.144,42.069 C121.144,42.251 121.1755,42.4061667 121.2385,42.5345 C121.3015,42.6628333 121.386667,42.7666667 121.494,42.846 C121.601333,42.9253333 121.7285,42.9836667 121.8755,43.021 C122.0225,43.0583333 122.177667,43.077 122.341,43.077 C122.593,43.077 122.8275,43.0338333 123.0445,42.9475 C123.2615,42.8611667 123.451667,42.72 123.615,42.524 C123.615,42.72 123.6605,42.8611667 123.7515,42.9475 C123.8425,43.0338333 123.965,43.077 124.119,43.077 Z M122.474,42.559 C122.380667,42.559 122.292,42.5496667 122.208,42.531 C122.124,42.5123333 122.0505,42.482 121.9875,42.44 C121.9245,42.398 121.873167,42.3431667 121.8335,42.2755 C121.793833,42.2078333 121.774,42.125 121.774,42.027 C121.774,41.8776667 121.807833,41.7598333 121.8755,41.6735 C121.943167,41.5871667 122.030667,41.5206667 122.138,41.474 C122.245333,41.4273333 122.366667,41.3935 122.502,41.3725 C122.637333,41.3515 122.7715,41.3328333 122.9045,41.3165 C123.0375,41.3001667 123.164667,41.2791667 123.286,41.2535 C123.407333,41.2278333 123.505333,41.187 123.58,41.131 L123.58,41.131 L123.58,41.74 C123.58,41.824 123.559,41.9138333 123.517,42.0095 C123.475,42.1051667 123.409667,42.1938333 123.321,42.2755 C123.232333,42.3571667 123.118,42.4248333 122.978,42.4785 C122.838,42.5321667 122.67,42.559 122.474,42.559 Z M126.401,43.077 C126.583,43.077 126.766167,43.0595 126.9505,43.0245 C127.134833,42.9895 127.3005,42.9276667 127.4475,42.839 C127.5945,42.7503333 127.7135,42.6336667 127.8045,42.489 C127.8955,42.3443333 127.941,42.1623333 127.941,41.943 C127.941,41.7703333 127.907167,41.6256667 127.8395,41.509 C127.771833,41.3923333 127.683167,41.2955 127.5735,41.2185 C127.463833,41.1415 127.337833,41.0796667 127.1955,41.033 C127.053167,40.9863333 126.907333,40.9466667 126.758,40.914 C126.618,40.8813333 126.478,40.8498333 126.338,40.8195 C126.198,40.7891667 126.072,40.7518333 125.96,40.7075 C125.848,40.6631667 125.755833,40.6071667 125.6835,40.5395 C125.611167,40.4718333 125.575,40.3866667 125.575,40.284 C125.575,40.1906667 125.598333,40.1148333 125.645,40.0565 C125.691667,39.9981667 125.752333,39.9515 125.827,39.9165 C125.901667,39.8815 125.9845,39.857 126.0755,39.843 C126.1665,39.829 126.256333,39.822 126.345,39.822 C126.443,39.822 126.539833,39.8325 126.6355,39.8535 C126.731167,39.8745 126.818667,39.9083333 126.898,39.955 C126.977333,40.0016667 127.042667,40.0635 127.094,40.1405 C127.145333,40.2175 127.175667,40.3143333 127.185,40.431 L127.78,40.431 C127.766,40.2116667 127.719333,40.0285 127.64,39.8815 C127.560667,39.7345 127.4545,39.6178333 127.3215,39.5315 C127.1885,39.4451667 127.035667,39.3845 126.863,39.3495 C126.690333,39.3145 126.501333,39.297 126.296,39.297 C126.137333,39.297 125.9775,39.3168333 125.8165,39.3565 C125.6555,39.3961667 125.510833,39.4568333 125.3825,39.5385 C125.254167,39.6201667 125.149167,39.7263333 125.0675,39.857 C124.985833,39.9876667 124.945,40.144 124.945,40.326 C124.945,40.5593333 125.003333,40.7413333 125.12,40.872 C125.236667,41.0026667 125.3825,41.1041667 125.5575,41.1765 C125.7325,41.2488333 125.922667,41.3048333 126.128,41.3445 C126.333333,41.3841667 126.5235,41.4285 126.6985,41.4775 C126.8735,41.5265 127.019333,41.5906667 127.136,41.67 C127.252667,41.7493333 127.311,41.866 127.311,42.02 C127.311,42.132 127.283,42.2241667 127.227,42.2965 C127.171,42.3688333 127.099833,42.4236667 127.0135,42.461 C126.927167,42.4983333 126.832667,42.524 126.73,42.538 C126.627333,42.552 126.529333,42.559 126.436,42.559 C126.314667,42.559 126.196833,42.5473333 126.0825,42.524 C125.968167,42.5006667 125.8655,42.4621667 125.7745,42.4085 C125.6835,42.3548333 125.61,42.2825 125.554,42.1915 C125.498,42.1005 125.467667,41.9896667 125.463,41.859 L124.868,41.859 C124.877333,42.083 124.924,42.2731667 125.008,42.4295 C125.092,42.5858333 125.204,42.7118333 125.344,42.8075 C125.484,42.9031667 125.645,42.972 125.827,43.014 C126.009,43.056 126.200333,43.077 126.401,43.077 Z M130.146,43 L130.146,42.475 L129.873,42.475 C129.779667,42.475 129.703833,42.4715 129.6455,42.4645 C129.587167,42.4575 129.541667,42.4423333 129.509,42.419 C129.476333,42.3956667 129.454167,42.363 129.4425,42.321 C129.430833,42.279 129.425,42.223 129.425,42.153 L129.425,39.906 L130.146,39.906 L130.146,39.381 L129.425,39.381 L129.425,38.296 L128.83,38.296 L128.83,39.381 L128.214,39.381 L128.214,39.906 L128.83,39.906 L128.83,42.209 C128.83,42.377 128.846333,42.5123333 128.879,42.615 C128.911667,42.7176667 128.961833,42.797 129.0295,42.853 C129.097167,42.909 129.185833,42.9475 129.2955,42.9685 C129.405167,42.9895 129.537,43 129.691,43 L130.146,43 Z M133.471,43 L133.471,38.989 L133.485,38.989 L136.096,43 L136.824,43 L136.824,38.002 L136.194,38.002 L136.194,42.055 L136.18,42.055 L133.548,38.002 L132.841,38.002 L132.841,43 L133.471,43 Z M140.583,43.077 C140.765,43.077 140.907333,43.0466667 141.01,42.986 L141.01,42.986 L141.01,42.524 C140.94,42.5473333 140.879333,42.559 140.828,42.559 C140.734667,42.559 140.679833,42.5263333 140.6635,42.461 C140.647167,42.3956667 140.639,42.293 140.639,42.153 L140.639,42.153 L140.639,40.291 C140.639,40.081 140.599333,39.9106667 140.52,39.78 C140.440667,39.6493333 140.335667,39.5478333 140.205,39.4755 C140.074333,39.4031667 139.9285,39.3553333 139.7675,39.332 C139.6065,39.3086667 139.444333,39.297 139.281,39.297 C139.075667,39.297 138.883167,39.318 138.7035,39.36 C138.523833,39.402 138.364,39.4708333 138.224,39.5665 C138.084,39.6621667 137.972,39.787 137.888,39.941 C137.804,40.095 137.757333,40.284 137.748,40.508 L137.748,40.508 L138.343,40.508 C138.357,40.242 138.448,40.0611667 138.616,39.9655 C138.784,39.8698333 138.994,39.822 139.246,39.822 C139.339333,39.822 139.433833,39.829 139.5295,39.843 C139.625167,39.857 139.7115,39.885 139.7885,39.927 C139.8655,39.969 139.9285,40.0296667 139.9775,40.109 C140.0265,40.1883333 140.051,40.2933333 140.051,40.424 C140.051,40.536 140.018333,40.6211667 139.953,40.6795 C139.887667,40.7378333 139.799,40.7821667 139.687,40.8125 C139.575,40.8428333 139.4455,40.8661667 139.2985,40.8825 C139.1515,40.8988333 138.996333,40.9233333 138.833,40.956 C138.679,40.984 138.5285,41.019 138.3815,41.061 C138.2345,41.103 138.103833,41.1648333 137.9895,41.2465 C137.875167,41.3281667 137.783,41.4343333 137.713,41.565 C137.643,41.6956667 137.608,41.8636667 137.608,42.069 C137.608,42.251 137.6395,42.4061667 137.7025,42.5345 C137.7655,42.6628333 137.850667,42.7666667 137.958,42.846 C138.065333,42.9253333 138.1925,42.9836667 138.3395,43.021 C138.4865,43.0583333 138.641667,43.077 138.805,43.077 C139.057,43.077 139.2915,43.0338333 139.5085,42.9475 C139.7255,42.8611667 139.915667,42.72 140.079,42.524 C140.079,42.72 140.1245,42.8611667 140.2155,42.9475 C140.3065,43.0338333 140.429,43.077 140.583,43.077 Z M138.938,42.559 C138.844667,42.559 138.756,42.5496667 138.672,42.531 C138.588,42.5123333 138.5145,42.482 138.4515,42.44 C138.3885,42.398 138.337167,42.3431667 138.2975,42.2755 C138.257833,42.2078333 138.238,42.125 138.238,42.027 C138.238,41.8776667 138.271833,41.7598333 138.3395,41.6735 C138.407167,41.5871667 138.494667,41.5206667 138.602,41.474 C138.709333,41.4273333 138.830667,41.3935 138.966,41.3725 C139.101333,41.3515 139.2355,41.3328333 139.3685,41.3165 C139.5015,41.3001667 139.628667,41.2791667 139.75,41.2535 C139.871333,41.2278333 139.969333,41.187 140.044,41.131 L140.044,41.131 L140.044,41.74 C140.044,41.824 140.023,41.9138333 139.981,42.0095 C139.939,42.1051667 139.873667,42.1938333 139.785,42.2755 C139.696333,42.3571667 139.582,42.4248333 139.442,42.4785 C139.302,42.5321667 139.134,42.559 138.938,42.559 Z M142.158,43 L142.158,40.746 C142.158,40.676 142.1755,40.5885 142.2105,40.4835 C142.2455,40.3785 142.3015,40.277 142.3785,40.179 C142.4555,40.081 142.555833,39.997 142.6795,39.927 C142.803167,39.857 142.951333,39.822 143.124,39.822 C143.259333,39.822 143.370167,39.8418333 143.4565,39.8815 C143.542833,39.9211667 143.611667,39.9771667 143.663,40.0495 C143.714333,40.1218333 143.7505,40.207 143.7715,40.305 C143.7925,40.403 143.803,40.5103333 143.803,40.627 L143.803,43 L144.398,43 L144.398,40.746 C144.398,40.466 144.482,40.242 144.65,40.074 C144.818,39.906 145.049,39.822 145.343,39.822 C145.487667,39.822 145.6055,39.843 145.6965,39.885 C145.7875,39.927 145.858667,39.9841667 145.91,40.0565 C145.961333,40.1288333 145.996333,40.214 146.015,40.312 C146.033667,40.41 146.043,40.515 146.043,40.627 L146.043,43 L146.638,43 L146.638,40.347 C146.638,40.1603333 146.608833,40.0005 146.5505,39.8675 C146.492167,39.7345 146.4105,39.626 146.3055,39.542 C146.2005,39.458 146.0745,39.3961667 145.9275,39.3565 C145.7805,39.3168333 145.616,39.297 145.434,39.297 C145.196,39.297 144.977833,39.3506667 144.7795,39.458 C144.581167,39.5653333 144.421333,39.717 144.3,39.913 C144.225333,39.689 144.097,39.5303333 143.915,39.437 C143.733,39.3436667 143.53,39.297 143.306,39.297 C142.797333,39.297 142.407667,39.5023333 142.137,39.913 L142.123,39.913 L142.123,39.381 L141.563,39.381 L141.563,43 L142.158,43 Z M149.074,43.077 C149.484667,43.077 149.825333,42.9743333 150.096,42.769 C150.366667,42.5636667 150.541667,42.258 150.621,41.852 L150.033,41.852 C149.981667,42.09 149.8755,42.2673333 149.7145,42.384 C149.5535,42.5006667 149.347,42.559 149.095,42.559 C148.899,42.559 148.728667,42.5263333 148.584,42.461 C148.439333,42.3956667 148.320333,42.3081667 148.227,42.1985 C148.133667,42.0888333 148.066,41.9628333 148.024,41.8205 C147.982,41.6781667 147.963333,41.5276667 147.968,41.369 L150.677,41.369 C150.686333,41.1496667 150.6665,40.9186667 150.6175,40.676 C150.5685,40.4333333 150.479833,40.2093333 150.3515,40.004 C150.223167,39.7986667 150.052833,39.6295 149.8405,39.4965 C149.628167,39.3635 149.361,39.297 149.039,39.297 C148.791667,39.297 148.564167,39.3436667 148.3565,39.437 C148.148833,39.5303333 147.969167,39.661 147.8175,39.829 C147.665833,39.997 147.548,40.1953333 147.464,40.424 C147.38,40.6526667 147.338,40.9046667 147.338,41.18 C147.347333,41.4553333 147.388167,41.7096667 147.4605,41.943 C147.532833,42.1763333 147.641333,42.377 147.786,42.545 C147.930667,42.713 148.109167,42.8436667 148.3215,42.937 C148.533833,43.0303333 148.784667,43.077 149.074,43.077 Z M150.047,40.844 L147.968,40.844 C147.977333,40.704 148.007667,40.5721667 148.059,40.4485 C148.110333,40.3248333 148.180333,40.2163333 148.269,40.123 C148.357667,40.0296667 148.463833,39.9561667 148.5875,39.9025 C148.711167,39.8488333 148.85,39.822 149.004,39.822 C149.153333,39.822 149.289833,39.8488333 149.4135,39.9025 C149.537167,39.9561667 149.6445,40.0285 149.7355,40.1195 C149.8265,40.2105 149.898833,40.319 149.9525,40.445 C150.006167,40.571 150.037667,40.704 150.047,40.844 Z" id="LastName" fill="#7D8C94" fill-rule="nonzero"></path>
                    <rect id="Rectangle" fill="#EDF2F5" x="117" y="14.2105263" width="107.171053" height="20" rx="3"></rect>
                </g>
                <g id="Form-Field/Text-Field" transform="translate(0.000000, 208.000000)">
                    <text id="Text-Label" font-family="HelveticaNeue-Medium, Helvetica Neue" font-size="8" font-weight="400" fill="#162731">
                        <tspan x="0" y="8">Serial Number*</tspan>
                    </text>
                    <rect id="Rectangle-Copy" fill="#EDF2F5" x="0" y="14.6578947" width="225" height="20" rx="3"></rect>
                </g>
                <g id="Form-Fields/Date" transform="translate(0.000000, 254.000000)">
                    <text id="Text-Label" font-family="HelveticaNeue-Medium, Helvetica Neue" font-size="8" font-weight="400" fill="#162731">
                        <tspan x="0" y="8">Date Purchased*</tspan>
                    </text>
                    <g id="Day" transform="translate(0.000000, 14.657895)">
                        <rect id="Rectangle" fill="#EDF2F5" x="0" y="0" width="36" height="20" rx="3"></rect>
                        <g id="Picker" transform="translate(28.000000, 6.342105)" fill="#15232B">
                            <path d="M2.14142136,0.141421356 L3.65857864,1.65857864 C3.7366835,1.7366835 3.7366835,1.8633165 3.65857864,1.94142136 C3.62107137,1.97892863 3.57020059,2 3.51715729,2 L0.482842712,2 C0.372385763,2 0.282842712,1.91045695 0.282842712,1.8 C0.282842712,1.7469567 0.303914081,1.69608592 0.341421356,1.65857864 L1.85857864,0.141421356 C1.9366835,0.0633164979 2.0633165,0.0633164979 2.14142136,0.141421356 Z" id="Triangle"></path>
                            <path d="M2.14142136,4.14142136 L3.65857864,5.65857864 C3.7366835,5.7366835 3.7366835,5.8633165 3.65857864,5.94142136 C3.62107137,5.97892863 3.57020059,6 3.51715729,6 L0.482842712,6 C0.372385763,6 0.282842712,5.91045695 0.282842712,5.8 C0.282842712,5.7469567 0.303914081,5.69608592 0.341421356,5.65857864 L1.85857864,4.14142136 C1.9366835,4.0633165 2.0633165,4.0633165 2.14142136,4.14142136 Z" id="Triangle-Copy" transform="translate(2.000000, 5.000000) scale(1, -1) translate(-2.000000, -5.000000) "></path>
                        </g>
                    </g>
                    <g id="Month" transform="translate(46.000000, 14.657895)">
                        <rect id="Rectangle" fill="#EDF2F5" x="0" y="0" width="36" height="20" rx="3"></rect>
                        <g id="Picker" transform="translate(28.000000, 6.342105)" fill="#15232B">
                            <path d="M2.14142136,0.141421356 L3.65857864,1.65857864 C3.7366835,1.7366835 3.7366835,1.8633165 3.65857864,1.94142136 C3.62107137,1.97892863 3.57020059,2 3.51715729,2 L0.482842712,2 C0.372385763,2 0.282842712,1.91045695 0.282842712,1.8 C0.282842712,1.7469567 0.303914081,1.69608592 0.341421356,1.65857864 L1.85857864,0.141421356 C1.9366835,0.0633164979 2.0633165,0.0633164979 2.14142136,0.141421356 Z" id="Triangle"></path>
                            <path d="M2.14142136,4.14142136 L3.65857864,5.65857864 C3.7366835,5.7366835 3.7366835,5.8633165 3.65857864,5.94142136 C3.62107137,5.97892863 3.57020059,6 3.51715729,6 L0.482842712,6 C0.372385763,6 0.282842712,5.91045695 0.282842712,5.8 C0.282842712,5.7469567 0.303914081,5.69608592 0.341421356,5.65857864 L1.85857864,4.14142136 C1.9366835,4.0633165 2.0633165,4.0633165 2.14142136,4.14142136 Z" id="Triangle-Copy" transform="translate(2.000000, 5.000000) scale(1, -1) translate(-2.000000, -5.000000) "></path>
                        </g>
                    </g>
                    <g id="Year" transform="translate(92.000000, 14.657895)">
                        <rect id="Rectangle" fill="#EDF2F5" x="0" y="0" width="36" height="20" rx="3"></rect>
                        <g id="Picker" transform="translate(28.000000, 6.342105)" fill="#15232B">
                            <path d="M2.14142136,0.141421356 L3.65857864,1.65857864 C3.7366835,1.7366835 3.7366835,1.8633165 3.65857864,1.94142136 C3.62107137,1.97892863 3.57020059,2 3.51715729,2 L0.482842712,2 C0.372385763,2 0.282842712,1.91045695 0.282842712,1.8 C0.282842712,1.7469567 0.303914081,1.69608592 0.341421356,1.65857864 L1.85857864,0.141421356 C1.9366835,0.0633164979 2.0633165,0.0633164979 2.14142136,0.141421356 Z" id="Triangle"></path>
                            <path d="M2.14142136,4.14142136 L3.65857864,5.65857864 C3.7366835,5.7366835 3.7366835,5.8633165 3.65857864,5.94142136 C3.62107137,5.97892863 3.57020059,6 3.51715729,6 L0.482842712,6 C0.372385763,6 0.282842712,5.91045695 0.282842712,5.8 C0.282842712,5.7469567 0.303914081,5.69608592 0.341421356,5.65857864 L1.85857864,4.14142136 C1.9366835,4.0633165 2.0633165,4.0633165 2.14142136,4.14142136 Z" id="Triangle-Copy" transform="translate(2.000000, 5.000000) scale(1, -1) translate(-2.000000, -5.000000) "></path>
                        </g>
                    </g>
                    <path d="M138.781244,19 C138.597156,19 138.447911,19.1459891 138.447911,19.3260869 L138.447911,20.5794779 C138.061389,20.7151735 137.781244,21.0777822 137.781244,21.5 C137.781244,22.0364124 138.232922,22.4782601 138.781244,22.4782601 C139.329578,22.4782601 139.781244,22.0364124 139.781244,21.5 C139.781244,21.0782387 139.500456,20.7155214 139.114578,20.5794779 L139.114578,19.3260869 C139.114578,19.1459891 138.965333,19 138.781244,19 Z M143.225689,19 C143.0416,19 142.892356,19.1459891 142.892356,19.3260869 L142.892356,20.5794779 C142.505833,20.7151735 142.225689,21.0777822 142.225689,21.5 C142.225689,22.0364124 142.677367,22.4782601 143.225689,22.4782601 C143.774022,22.4782601 144.225689,22.0364124 144.225689,21.5 C144.225689,21.0782387 143.9449,20.7155214 143.559022,20.5794779 L143.559022,19.3260869 C143.559022,19.1459891 143.409778,19 143.225689,19 Z M137.225689,19.6521457 C136.552489,19.6521457 136,20.1926628 136,20.851217 L136,27.8009459 C136,28.459511 136.5525,29 137.225689,29 L144.774311,29 C145.4475,29 146,28.459511 146,27.8009459 L146,20.851217 C146,20.1926628 145.447489,19.6521457 144.774311,19.6521457 L144.111111,19.6521457 C143.935011,19.6497825 143.770833,19.8059672 143.770833,19.9782607 C143.770833,20.1505541 143.935011,20.3067823 144.111111,20.3043475 L144.774311,20.3043475 C145.089056,20.3043475 145.333333,20.5432931 145.333333,20.851217 L145.333333,22.6956514 L136.666667,22.6956514 L136.666667,20.851217 C136.666667,20.5432931 136.910933,20.3043475 137.225689,20.3043475 L137.888889,20.3043475 C138.064989,20.3067388 138.225689,20.1505541 138.225689,19.9782607 C138.225689,19.8059672 138.064989,19.649739 137.888889,19.6521457 L137.225689,19.6521457 Z M139.666667,19.6521738 C139.482567,19.6521738 139.333333,19.7981629 139.333333,19.9782607 C139.333333,20.1583476 139.482567,20.3043475 139.666667,20.3043475 L142.333333,20.3043475 C142.517433,20.3043475 142.666667,20.1583476 142.666667,19.9782607 C142.666667,19.7981629 142.517433,19.6521738 142.333333,19.6521738 L139.666667,19.6521738 Z M138.781244,21.1739126 C138.969289,21.1739126 139.114578,21.316043 139.114578,21.4999995 C139.114578,21.6839559 138.969289,21.8260863 138.781244,21.8260863 C138.593211,21.8260863 138.447911,21.6839559 138.447911,21.4999995 C138.447911,21.316043 138.593211,21.1739126 138.781244,21.1739126 Z M143.225689,21.1739126 C143.413733,21.1739126 143.559022,21.316043 143.559022,21.4999995 C143.559022,21.6839559 143.413733,21.8260863 143.225689,21.8260863 C143.037656,21.8260863 142.892356,21.6839559 142.892356,21.4999995 C142.892356,21.316043 143.037656,21.1739126 143.225689,21.1739126 Z M136.666667,23.3478251 L145.333333,23.3478251 L145.333333,27.8009459 C145.333333,28.1088698 145.089056,28.3478251 144.774311,28.3478251 L137.225689,28.3478251 C136.910922,28.3478251 136.666667,28.1088698 136.666667,27.8009459 L136.666667,23.3478251 Z" id="Shape" fill="#000000" fill-rule="nonzero"></path>
                </g>
                <g id="Form-Field/Text-Field" transform="translate(0.000000, 116.000000)">
                    <text id="Text-Label" font-family="HelveticaNeue-Medium, Helvetica Neue" font-size="8" font-weight="400" fill="#162731">
                        <tspan x="0" y="8">Email Address*</tspan>
                    </text>
                    <rect id="Rectangle-Copy" fill="#EDF2F5" x="0" y="14.6578947" width="225" height="20" rx="3"></rect>
                </g>
                <g id="Form-Field/Dropdown" transform="translate(0.000000, 162.000000)">
                    <g id="Dropdown" transform="translate(0.000000, 15.000000)">
                        <rect id="BG" fill="#EDF2F5" x="0" y="0" width="225" height="20" rx="3"></rect>
                        <g id="Arrows" transform="translate(215.000000, 7.000000)" fill="#15232B">
                            <path d="M2.14142136,0.141421356 L3.65857864,1.65857864 C3.7366835,1.7366835 3.7366835,1.8633165 3.65857864,1.94142136 C3.62107137,1.97892863 3.57020059,2 3.51715729,2 L0.482842712,2 C0.372385763,2 0.282842712,1.91045695 0.282842712,1.8 C0.282842712,1.7469567 0.303914081,1.69608592 0.341421356,1.65857864 L1.85857864,0.141421356 C1.9366835,0.0633164979 2.0633165,0.0633164979 2.14142136,0.141421356 Z" id="Triangle"></path>
                            <path d="M2.14142136,4.14142136 L3.65857864,5.65857864 C3.7366835,5.7366835 3.7366835,5.8633165 3.65857864,5.94142136 C3.62107137,5.97892863 3.57020059,6 3.51715729,6 L0.482842712,6 C0.372385763,6 0.282842712,5.91045695 0.282842712,5.8 C0.282842712,5.7469567 0.303914081,5.69608592 0.341421356,5.65857864 L1.85857864,4.14142136 C1.9366835,4.0633165 2.0633165,4.0633165 2.14142136,4.14142136 Z" id="Triangle-Copy" transform="translate(2.000000, 5.000000) scale(1, -1) translate(-2.000000, -5.000000) "></path>
                        </g>
                        <text id="Choose-One" font-family="HelveticaNeue, Helvetica Neue" font-size="7" font-weight="normal" fill="#7D8C94">
                            <tspan x="8" y="12">Choose One</tspan>
                        </text>
                    </g>
                    <text id="Text-Label" font-family="HelveticaNeue-Medium, Helvetica Neue" font-size="8" font-weight="400" fill="#162731">
                        <tspan x="0" y="8">Asset Needed</tspan>
                    </text>
                </g>
                <g id="Group" transform="translate(78.000000, 0.000000)">
                    <text id="WRIGHT-college" font-family="Colus-Regular, Colus" font-size="10" font-weight="normal" line-spacing="12" fill="#15232B">
                        <tspan x="24" y="12.593">WRIGHT</tspan>
                        <tspan x="24" y="24.593">college</tspan>
                    </text>
                    <path d="M9.50133684,0 C10.9062971,2.30920774 13.5109987,3.85953391 16.491935,3.85953391 C17.3376408,3.85953391 18.1507879,3.73465467 18.9169056,3.50427118 C19.0988517,5.60475944 18.9849242,7.76046401 18.5462556,9.92478937 L18.5062077,10.1173355 L18.5108748,10.1174494 L18.4460861,10.4339622 L18.4460861,10.4339622 C17.9536077,12.6031721 17.1621051,14.6374823 16.1229816,16.5022657 L16.0306529,16.6663646 L9.49768631,10.4479643 L9.49554861,10.449918 L16.0266406,16.6663646 C15.4531623,17.6794312 14.8066984,18.642413 14.0936172,19.5498097 L13.9501146,19.7305463 L9.49367402,15.439715 L9.49341092,15.4398778 L13.9495884,19.7304975 C12.6984786,21.2897417 11.2537904,22.6817149 9.65695465,23.8807415 L9.49676546,24 C7.87185049,22.7982664 6.42326601,21.4082195 5.17485725,19.8725046 L5.05104627,19.7193121 C4.32479453,18.8091243 3.66849328,17.850569 3.08851068,16.8506222 L2.97353363,16.650083 L2.97623491,16.647483 C1.8536517,14.6689551 1.0230322,12.5341417 0.530967244,10.3035523 L0.491670318,10.1215687 L0.48502407,10.1215687 C0.0470766904,8.04557452 -0.103362102,5.89043699 0.0708445209,3.70513348 L0.08757686,3.50638778 C0.851885768,3.73465467 1.66552615,3.85953391 2.50892985,3.85953391 C5.49118164,3.85953391 8.09456775,2.30920774 9.50133684,0 Z" id="Path" fill="url(#linearGradient-2)"></path>
                    <text id="W" font-family="Colus-Regular, Colus" font-size="10" font-weight="normal" line-spacing="12" fill="#FFFFFF">
                        <tspan x="4" y="16.593">W</tspan>
                    </text>
                </g>
                <g id="Button" transform="translate(0.000000, 302.000000)">
                    <rect id="Rectangle-Copy-5" fill="#AB7078" x="0" y="0" width="225" height="30" rx="3"></rect>
                    <path d="M66.51,19.47 C66.95,19.47 67.3533333,19.4033333 67.72,19.27 C68.0866667,19.1366667 68.4066667,18.9433333 68.68,18.69 C68.9533333,18.4366667 69.1733333,18.13 69.34,17.77 C69.5066667,17.41 69.61,17.0066667 69.65,16.56 L68.13,16.56 C68.07,17.04 67.905,17.4266667 67.635,17.72 C67.365,18.0133333 66.99,18.16 66.51,18.16 C66.1566667,18.16 65.8566667,18.0916667 65.61,17.955 C65.3633333,17.8183333 65.1633333,17.6366667 65.01,17.41 C64.8566667,17.1833333 64.745,16.9283333 64.675,16.645 C64.605,16.3616667 64.57,16.07 64.57,15.77 C64.57,15.4566667 64.605,15.1533333 64.675,14.86 C64.745,14.5666667 64.8566667,14.305 65.01,14.075 C65.1633333,13.845 65.3633333,13.6616667 65.61,13.525 C65.8566667,13.3883333 66.1566667,13.32 66.51,13.32 C66.7033333,13.32 66.8883333,13.3516667 67.065,13.415 C67.2416667,13.4783333 67.4,13.5666667 67.54,13.68 C67.68,13.7933333 67.7966667,13.925 67.89,14.075 C67.9833333,14.225 68.0433333,14.39 68.07,14.57 L69.59,14.57 C69.5433333,14.1566667 69.43,13.79 69.25,13.47 C69.07,13.15 68.8416667,12.8816667 68.565,12.665 C68.2883333,12.4483333 67.975,12.2833333 67.625,12.17 C67.275,12.0566667 66.9033333,12 66.51,12 C65.9633333,12 65.4716667,12.0966667 65.035,12.29 C64.5983333,12.4833333 64.23,12.75 63.93,13.09 C63.63,13.43 63.4,13.8283333 63.24,14.285 C63.08,14.7416667 63,15.2366667 63,15.77 C63,16.29 63.08,16.775 63.24,17.225 C63.4,17.675 63.63,18.0666667 63.93,18.4 C64.23,18.7333333 64.5983333,18.995 65.035,19.185 C65.4716667,19.375 65.9633333,19.47 66.51,19.47 Z M73.08,19.44 C73.4866667,19.44 73.855,19.3766667 74.185,19.25 C74.515,19.1233333 74.7966667,18.9416667 75.03,18.705 C75.2633333,18.4683333 75.4433333,18.1833333 75.57,17.85 C75.6966667,17.5166667 75.76,17.1433333 75.76,16.73 C75.76,16.3166667 75.6966667,15.9416667 75.57,15.605 C75.4433333,15.2683333 75.2633333,14.9816667 75.03,14.745 C74.7966667,14.5083333 74.515,14.325 74.185,14.195 C73.855,14.065 73.4866667,14 73.08,14 C72.6733333,14 72.3066667,14.065 71.98,14.195 C71.6533333,14.325 71.3733333,14.5083333 71.14,14.745 C70.9066667,14.9816667 70.7266667,15.2683333 70.6,15.605 C70.4733333,15.9416667 70.41,16.3166667 70.41,16.73 C70.41,17.1433333 70.4733333,17.5166667 70.6,17.85 C70.7266667,18.1833333 70.9066667,18.4683333 71.14,18.705 C71.3733333,18.9416667 71.6533333,19.1233333 71.98,19.25 C72.3066667,19.3766667 72.6733333,19.44 73.08,19.44 Z M73.08,18.38 C72.84,18.38 72.64,18.3333333 72.48,18.24 C72.32,18.1466667 72.1916667,18.0216667 72.095,17.865 C71.9983333,17.7083333 71.93,17.5316667 71.89,17.335 C71.85,17.1383333 71.83,16.9366667 71.83,16.73 C71.83,16.5233333 71.85,16.32 71.89,16.12 C71.93,15.92 71.9983333,15.7433333 72.095,15.59 C72.1916667,15.4366667 72.32,15.3116667 72.48,15.215 C72.64,15.1183333 72.84,15.07 73.08,15.07 C73.32,15.07 73.5216667,15.1183333 73.685,15.215 C73.8483333,15.3116667 73.9783333,15.4366667 74.075,15.59 C74.1716667,15.7433333 74.24,15.92 74.28,16.12 C74.32,16.32 74.34,16.5233333 74.34,16.73 C74.34,16.9366667 74.32,17.1383333 74.28,17.335 C74.24,17.5316667 74.1716667,17.7083333 74.075,17.865 C73.9783333,18.0216667 73.8483333,18.1466667 73.685,18.24 C73.5216667,18.3333333 73.32,18.38 73.08,18.38 Z M78.1,19.31 L78.1,16.6 C78.1,16.0733333 78.1866667,15.695 78.36,15.465 C78.5333333,15.235 78.8133333,15.12 79.2,15.12 C79.54,15.12 79.7766667,15.225 79.91,15.435 C80.0433333,15.645 80.11,15.9633333 80.11,16.39 L80.11,19.31 L81.53,19.31 L81.53,16.13 C81.53,15.81 81.5016667,15.5183333 81.445,15.255 C81.3883333,14.9916667 81.29,14.7683333 81.15,14.585 C81.01,14.4016667 80.8183333,14.2583333 80.575,14.155 C80.3316667,14.0516667 80.02,14 79.64,14 C79.34,14 79.0466667,14.0683333 78.76,14.205 C78.4733333,14.3416667 78.24,14.56 78.06,14.86 L78.03,14.86 L78.03,14.14 L76.68,14.14 L76.68,19.31 L78.1,19.31 Z M84.62,19.36 C84.76,19.36 84.9033333,19.3566667 85.05,19.35 C85.1966667,19.3433333 85.33,19.33 85.45,19.31 L85.45,18.21 C85.3833333,18.2233333 85.3133333,18.2333333 85.24,18.24 C85.1666667,18.2466667 85.09,18.25 85.01,18.25 C84.77,18.25 84.61,18.21 84.53,18.13 C84.45,18.05 84.41,17.89 84.41,17.65 L84.41,15.09 L85.45,15.09 L85.45,14.14 L84.41,14.14 L84.41,12.59 L82.99,12.59 L82.99,14.14 L82.13,14.14 L82.13,15.09 L82.99,15.09 L82.99,18.14 C82.99,18.4 83.0333333,18.61 83.12,18.77 C83.2066667,18.93 83.325,19.0533333 83.475,19.14 C83.625,19.2266667 83.7983333,19.285 83.995,19.315 C84.1916667,19.345 84.4,19.36 84.62,19.36 Z M87.59,13.34 L87.59,12.17 L86.17,12.17 L86.17,13.34 L87.59,13.34 Z M87.59,19.31 L87.59,14.14 L86.17,14.14 L86.17,19.31 L87.59,19.31 Z M90.13,19.31 L90.13,16.6 C90.13,16.0733333 90.2166667,15.695 90.39,15.465 C90.5633333,15.235 90.8433333,15.12 91.23,15.12 C91.57,15.12 91.8066667,15.225 91.94,15.435 C92.0733333,15.645 92.14,15.9633333 92.14,16.39 L92.14,19.31 L93.56,19.31 L93.56,16.13 C93.56,15.81 93.5316667,15.5183333 93.475,15.255 C93.4183333,14.9916667 93.32,14.7683333 93.18,14.585 C93.04,14.4016667 92.8483333,14.2583333 92.605,14.155 C92.3616667,14.0516667 92.05,14 91.67,14 C91.37,14 91.0766667,14.0683333 90.79,14.205 C90.5033333,14.3416667 90.27,14.56 90.09,14.86 L90.06,14.86 L90.06,14.14 L88.71,14.14 L88.71,19.31 L90.13,19.31 Z M96.53,19.44 C96.83,19.44 97.1233333,19.3733333 97.41,19.24 C97.6966667,19.1066667 97.93,18.89 98.11,18.59 L98.14,18.59 L98.14,19.31 L99.49,19.31 L99.49,14.14 L98.07,14.14 L98.07,16.85 C98.07,17.3766667 97.9833333,17.755 97.81,17.985 C97.6366667,18.215 97.3566667,18.33 96.97,18.33 C96.63,18.33 96.3933333,18.225 96.26,18.015 C96.1266667,17.805 96.06,17.4866667 96.06,17.06 L96.06,14.14 L94.64,14.14 L94.64,17.32 C94.64,17.64 94.6683333,17.9316667 94.725,18.195 C94.7816667,18.4583333 94.88,18.6816667 95.02,18.865 C95.16,19.0483333 95.3516667,19.19 95.595,19.29 C95.8383333,19.39 96.15,19.44 96.53,19.44 Z M102.96,19.44 C103.546667,19.44 104.046667,19.3066667 104.46,19.04 C104.873333,18.7733333 105.18,18.33 105.38,17.71 L104.13,17.71 C104.083333,17.87 103.956667,18.0216667 103.75,18.165 C103.543333,18.3083333 103.296667,18.38 103.01,18.38 C102.61,18.38 102.303333,18.2766667 102.09,18.07 C101.876667,17.8633333 101.76,17.53 101.74,17.07 L105.47,17.07 C105.496667,16.67 105.463333,16.2866667 105.37,15.92 C105.276667,15.5533333 105.125,15.2266667 104.915,14.94 C104.705,14.6533333 104.436667,14.425 104.11,14.255 C103.783333,14.085 103.4,14 102.96,14 C102.566667,14 102.208333,14.07 101.885,14.21 C101.561667,14.35 101.283333,14.5416667 101.05,14.785 C100.816667,15.0283333 100.636667,15.3166667 100.51,15.65 C100.383333,15.9833333 100.32,16.3433333 100.32,16.73 C100.32,17.13 100.381667,17.4966667 100.505,17.83 C100.628333,18.1633333 100.803333,18.45 101.03,18.69 C101.256667,18.93 101.533333,19.115 101.86,19.245 C102.186667,19.375 102.553333,19.44 102.96,19.44 Z M104.05,16.17 L101.74,16.17 C101.746667,16.07 101.768333,15.9566667 101.805,15.83 C101.841667,15.7033333 101.905,15.5833333 101.995,15.47 C102.085,15.3566667 102.205,15.2616667 102.355,15.185 C102.505,15.1083333 102.693333,15.07 102.92,15.07 C103.266667,15.07 103.525,15.1633333 103.695,15.35 C103.865,15.5366667 103.983333,15.81 104.05,16.17 Z M111.1,19.36 C111.24,19.36 111.383333,19.3566667 111.53,19.35 C111.676667,19.3433333 111.81,19.33 111.93,19.31 L111.93,18.21 C111.863333,18.2233333 111.793333,18.2333333 111.72,18.24 C111.646667,18.2466667 111.57,18.25 111.49,18.25 C111.25,18.25 111.09,18.21 111.01,18.13 C110.93,18.05 110.89,17.89 110.89,17.65 L110.89,15.09 L111.93,15.09 L111.93,14.14 L110.89,14.14 L110.89,12.59 L109.47,12.59 L109.47,14.14 L108.61,14.14 L108.61,15.09 L109.47,15.09 L109.47,18.14 C109.47,18.4 109.513333,18.61 109.6,18.77 C109.686667,18.93 109.805,19.0533333 109.955,19.14 C110.105,19.2266667 110.278333,19.285 110.475,19.315 C110.671667,19.345 110.88,19.36 111.1,19.36 Z M115.12,19.44 C115.526667,19.44 115.895,19.3766667 116.225,19.25 C116.555,19.1233333 116.836667,18.9416667 117.07,18.705 C117.303333,18.4683333 117.483333,18.1833333 117.61,17.85 C117.736667,17.5166667 117.8,17.1433333 117.8,16.73 C117.8,16.3166667 117.736667,15.9416667 117.61,15.605 C117.483333,15.2683333 117.303333,14.9816667 117.07,14.745 C116.836667,14.5083333 116.555,14.325 116.225,14.195 C115.895,14.065 115.526667,14 115.12,14 C114.713333,14 114.346667,14.065 114.02,14.195 C113.693333,14.325 113.413333,14.5083333 113.18,14.745 C112.946667,14.9816667 112.766667,15.2683333 112.64,15.605 C112.513333,15.9416667 112.45,16.3166667 112.45,16.73 C112.45,17.1433333 112.513333,17.5166667 112.64,17.85 C112.766667,18.1833333 112.946667,18.4683333 113.18,18.705 C113.413333,18.9416667 113.693333,19.1233333 114.02,19.25 C114.346667,19.3766667 114.713333,19.44 115.12,19.44 Z M115.12,18.38 C114.88,18.38 114.68,18.3333333 114.52,18.24 C114.36,18.1466667 114.231667,18.0216667 114.135,17.865 C114.038333,17.7083333 113.97,17.5316667 113.93,17.335 C113.89,17.1383333 113.87,16.9366667 113.87,16.73 C113.87,16.5233333 113.89,16.32 113.93,16.12 C113.97,15.92 114.038333,15.7433333 114.135,15.59 C114.231667,15.4366667 114.36,15.3116667 114.52,15.215 C114.68,15.1183333 114.88,15.07 115.12,15.07 C115.36,15.07 115.561667,15.1183333 115.725,15.215 C115.888333,15.3116667 116.018333,15.4366667 116.115,15.59 C116.211667,15.7433333 116.28,15.92 116.32,16.12 C116.36,16.32 116.38,16.5233333 116.38,16.73 C116.38,16.9366667 116.36,17.1383333 116.32,17.335 C116.28,17.5316667 116.211667,17.7083333 116.115,17.865 C116.018333,18.0216667 115.888333,18.1466667 115.725,18.24 C115.561667,18.3333333 115.36,18.38 115.12,18.38 Z M123.22,19.31 L123.22,16.75 L124.87,16.75 C125.316667,16.75 125.696667,16.685 126.01,16.555 C126.323333,16.425 126.578333,16.2533333 126.775,16.04 C126.971667,15.8266667 127.115,15.5816667 127.205,15.305 C127.295,15.0283333 127.34,14.7466667 127.34,14.46 C127.34,14.1666667 127.295,13.8833333 127.205,13.61 C127.115,13.3366667 126.971667,13.0933333 126.775,12.88 C126.578333,12.6666667 126.323333,12.495 126.01,12.365 C125.696667,12.235 125.316667,12.17 124.87,12.17 L121.65,12.17 L121.65,19.31 L123.22,19.31 Z M124.44,15.53 L123.22,15.53 L123.22,13.39 L124.44,13.39 C124.62,13.39 124.793333,13.4033333 124.96,13.43 C125.126667,13.4566667 125.273333,13.5083333 125.4,13.585 C125.526667,13.6616667 125.628333,13.77 125.705,13.91 C125.781667,14.05 125.82,14.2333333 125.82,14.46 C125.82,14.6866667 125.781667,14.87 125.705,15.01 C125.628333,15.15 125.526667,15.2583333 125.4,15.335 C125.273333,15.4116667 125.126667,15.4633333 124.96,15.49 C124.793333,15.5166667 124.62,15.53 124.44,15.53 Z M129.71,19.44 C130.03,19.44 130.343333,19.3933333 130.65,19.3 C130.956667,19.2066667 131.223333,19.0433333 131.45,18.81 C131.456667,18.8966667 131.468333,18.9816667 131.485,19.065 C131.501667,19.1483333 131.523333,19.23 131.55,19.31 L131.55,19.31 L132.99,19.31 C132.923333,19.2033333 132.876667,19.0433333 132.85,18.83 C132.823333,18.6166667 132.81,18.3933333 132.81,18.16 L132.81,18.16 L132.81,15.47 C132.81,15.1566667 132.74,14.905 132.6,14.715 C132.46,14.525 132.28,14.3766667 132.06,14.27 C131.84,14.1633333 131.596667,14.0916667 131.33,14.055 C131.063333,14.0183333 130.8,14 130.54,14 C130.253333,14 129.968333,14.0283333 129.685,14.085 C129.401667,14.1416667 129.146667,14.2366667 128.92,14.37 C128.693333,14.5033333 128.506667,14.68 128.36,14.9 C128.213333,15.12 128.13,15.3966667 128.11,15.73 L128.11,15.73 L129.53,15.73 C129.556667,15.45 129.65,15.25 129.81,15.13 C129.97,15.01 130.19,14.95 130.47,14.95 C130.596667,14.95 130.715,14.9583333 130.825,14.975 C130.935,14.9916667 131.031667,15.025 131.115,15.075 C131.198333,15.125 131.265,15.195 131.315,15.285 C131.365,15.375 131.39,15.4966667 131.39,15.65 C131.396667,15.7966667 131.353333,15.9083333 131.26,15.985 C131.166667,16.0616667 131.04,16.12 130.88,16.16 C130.72,16.2 130.536667,16.23 130.33,16.25 C130.123333,16.27 129.913333,16.2966667 129.7,16.33 C129.486667,16.3633333 129.275,16.4083333 129.065,16.465 C128.855,16.5216667 128.668333,16.6066667 128.505,16.72 C128.341667,16.8333333 128.208333,16.985 128.105,17.175 C128.001667,17.365 127.95,17.6066667 127.95,17.9 C127.95,18.1666667 127.995,18.3966667 128.085,18.59 C128.175,18.7833333 128.3,18.9433333 128.46,19.07 C128.62,19.1966667 128.806667,19.29 129.02,19.35 C129.233333,19.41 129.463333,19.44 129.71,19.44 Z M130.24,18.5 C130.126667,18.5 130.016667,18.49 129.91,18.47 C129.803333,18.45 129.71,18.415 129.63,18.365 C129.55,18.315 129.486667,18.2466667 129.44,18.16 C129.393333,18.0733333 129.37,17.9666667 129.37,17.84 C129.37,17.7066667 129.393333,17.5966667 129.44,17.51 C129.486667,17.4233333 129.548333,17.3516667 129.625,17.295 C129.701667,17.2383333 129.791667,17.1933333 129.895,17.16 C129.998333,17.1266667 130.103333,17.1 130.21,17.08 C130.323333,17.06 130.436667,17.0433333 130.55,17.03 C130.663333,17.0166667 130.771667,17 130.875,16.98 C130.978333,16.96 131.075,16.935 131.165,16.905 C131.255,16.875 131.33,16.8333333 131.39,16.78 L131.39,16.78 L131.39,17.31 C131.39,17.39 131.381667,17.4966667 131.365,17.63 C131.348333,17.7633333 131.303333,17.895 131.23,18.025 C131.156667,18.155 131.043333,18.2666667 130.89,18.36 C130.736667,18.4533333 130.52,18.5 130.24,18.5 Z M134.68,21.12 C135.166667,21.12 135.546667,21.03 135.82,20.85 C136.093333,20.67 136.306667,20.37 136.46,19.95 L138.62,14.14 L137.15,14.14 L136.02,17.68 L136,17.68 L134.83,14.14 L133.32,14.14 L135.13,18.99 C135.17,19.09 135.19,19.1966667 135.19,19.31 C135.19,19.4633333 135.145,19.6033333 135.055,19.73 C134.965,19.8566667 134.826667,19.93 134.64,19.95 C134.5,19.9566667 134.36,19.9533333 134.22,19.94 C134.08,19.9266667 133.943333,19.9133333 133.81,19.9 L133.81,21.07 C133.956667,21.0833333 134.101667,21.095 134.245,21.105 C134.388333,21.115 134.533333,21.12 134.68,21.12 Z M140.56,19.31 L140.56,16.31 C140.56,16.0566667 140.596667,15.8516667 140.67,15.695 C140.743333,15.5383333 140.831667,15.4183333 140.935,15.335 C141.038333,15.2516667 141.145,15.195 141.255,15.165 C141.365,15.135 141.453333,15.12 141.52,15.12 C141.746667,15.12 141.918333,15.1583333 142.035,15.235 C142.151667,15.3116667 142.235,15.4133333 142.285,15.54 C142.335,15.6666667 142.363333,15.805 142.37,15.955 C142.376667,16.105 142.38,16.2566667 142.38,16.41 L142.38,19.31 L143.8,19.31 L143.8,16.43 C143.8,16.27 143.811667,16.1116667 143.835,15.955 C143.858333,15.7983333 143.905,15.6583333 143.975,15.535 C144.045,15.4116667 144.141667,15.3116667 144.265,15.235 C144.388333,15.1583333 144.55,15.12 144.75,15.12 C144.95,15.12 145.108333,15.1533333 145.225,15.22 C145.341667,15.2866667 145.43,15.3766667 145.49,15.49 C145.55,15.6033333 145.586667,15.7366667 145.6,15.89 C145.613333,16.0433333 145.62,16.2066667 145.62,16.38 L145.62,19.31 L147.04,19.31 L147.04,15.85 C147.04,15.5166667 146.993333,15.2316667 146.9,14.995 C146.806667,14.7583333 146.676667,14.5666667 146.51,14.42 C146.343333,14.2733333 146.143333,14.1666667 145.91,14.1 C145.676667,14.0333333 145.423333,14 145.15,14 C144.79,14 144.478333,14.0866667 144.215,14.26 C143.951667,14.4333333 143.743333,14.6333333 143.59,14.86 C143.45,14.54 143.245,14.3166667 142.975,14.19 C142.705,14.0633333 142.406667,14 142.08,14 C141.74,14 141.438333,14.0733333 141.175,14.22 C140.911667,14.3666667 140.686667,14.5733333 140.5,14.84 L140.48,14.84 L140.48,14.14 L139.14,14.14 L139.14,19.31 L140.56,19.31 Z M150.55,19.44 C151.136667,19.44 151.636667,19.3066667 152.05,19.04 C152.463333,18.7733333 152.77,18.33 152.97,17.71 L151.72,17.71 C151.673333,17.87 151.546667,18.0216667 151.34,18.165 C151.133333,18.3083333 150.886667,18.38 150.6,18.38 C150.2,18.38 149.893333,18.2766667 149.68,18.07 C149.466667,17.8633333 149.35,17.53 149.33,17.07 L153.06,17.07 C153.086667,16.67 153.053333,16.2866667 152.96,15.92 C152.866667,15.5533333 152.715,15.2266667 152.505,14.94 C152.295,14.6533333 152.026667,14.425 151.7,14.255 C151.373333,14.085 150.99,14 150.55,14 C150.156667,14 149.798333,14.07 149.475,14.21 C149.151667,14.35 148.873333,14.5416667 148.64,14.785 C148.406667,15.0283333 148.226667,15.3166667 148.1,15.65 C147.973333,15.9833333 147.91,16.3433333 147.91,16.73 C147.91,17.13 147.971667,17.4966667 148.095,17.83 C148.218333,18.1633333 148.393333,18.45 148.62,18.69 C148.846667,18.93 149.123333,19.115 149.45,19.245 C149.776667,19.375 150.143333,19.44 150.55,19.44 Z M151.64,16.17 L149.33,16.17 C149.336667,16.07 149.358333,15.9566667 149.395,15.83 C149.431667,15.7033333 149.495,15.5833333 149.585,15.47 C149.675,15.3566667 149.795,15.2616667 149.945,15.185 C150.095,15.1083333 150.283333,15.07 150.51,15.07 C150.856667,15.07 151.115,15.1633333 151.285,15.35 C151.455,15.5366667 151.573333,15.81 151.64,16.17 Z M155.32,19.31 L155.32,16.6 C155.32,16.0733333 155.406667,15.695 155.58,15.465 C155.753333,15.235 156.033333,15.12 156.42,15.12 C156.76,15.12 156.996667,15.225 157.13,15.435 C157.263333,15.645 157.33,15.9633333 157.33,16.39 L157.33,19.31 L158.75,19.31 L158.75,16.13 C158.75,15.81 158.721667,15.5183333 158.665,15.255 C158.608333,14.9916667 158.51,14.7683333 158.37,14.585 C158.23,14.4016667 158.038333,14.2583333 157.795,14.155 C157.551667,14.0516667 157.24,14 156.86,14 C156.56,14 156.266667,14.0683333 155.98,14.205 C155.693333,14.3416667 155.46,14.56 155.28,14.86 L155.25,14.86 L155.25,14.14 L153.9,14.14 L153.9,19.31 L155.32,19.31 Z M161.84,19.36 C161.98,19.36 162.123333,19.3566667 162.27,19.35 C162.416667,19.3433333 162.55,19.33 162.67,19.31 L162.67,18.21 C162.603333,18.2233333 162.533333,18.2333333 162.46,18.24 C162.386667,18.2466667 162.31,18.25 162.23,18.25 C161.99,18.25 161.83,18.21 161.75,18.13 C161.67,18.05 161.63,17.89 161.63,17.65 L161.63,15.09 L162.67,15.09 L162.67,14.14 L161.63,14.14 L161.63,12.59 L160.21,12.59 L160.21,14.14 L159.35,14.14 L159.35,15.09 L160.21,15.09 L160.21,18.14 C160.21,18.4 160.253333,18.61 160.34,18.77 C160.426667,18.93 160.545,19.0533333 160.695,19.14 C160.845,19.2266667 161.018333,19.285 161.215,19.315 C161.411667,19.345 161.62,19.36 161.84,19.36 Z" id="ContinuetoPayment" fill="#FFFFFF" fill-rule="nonzero"></path>
                </g>
            </g>
        </g>
        <text id="IT-Asset-Request-For" font-family="HelveticaNeue-Medium, Helvetica Neue" font-size="10" font-weight="400" fill="#070707">
            <tspan x="222.2" y="116">IT Asset Request Form</tspan>
        </text>
    </g>
</svg>